<svg width="390" height="71" viewBox="0 0 390 71" fill="none" xmlns="http://www.w3.org/2000/svg">
<path d="M389.149 71C336.355 71 305.072 46.6618 304.738 46.3815C242.185 -2.76224 203.838 6.60991 150.778 19.6001C136.705 23.0445 122.138 26.6092 105.529 29.5997C24.3493 44.232 -15.5994 1.67016 -16 1.22959L-15.012 0.335083C-14.6248 0.762303 24.8967 42.7768 105.275 28.2913C121.858 25.3008 136.385 21.7495 150.444 18.3051C203.878 5.2348 242.478 -4.2041 305.553 45.3401C305.94 45.6472 343.899 75.152 406.853 68.7571L406.987 70.0788C400.805 70.7197 394.85 71 389.149 71Z" fill="#D62828"/>
</svg>